<mxfile host="app.diagrams.net" modified="2024-05-15T11:26:50.104Z" agent="Mozilla/5.0 (Windows NT 10.0; Win64; x64; rv:125.0) Gecko/20100101 Firefox/125.0" etag="ccZkC1I41R92aPDkFLiU" version="24.4.0" type="github">
  <diagram name="PÃ¡gina-1" id="gMZFPIhSzwh_AMsuZzWP">
    <mxGraphModel dx="1434" dy="726" grid="1" gridSize="10" guides="1" tooltips="1" connect="1" arrows="1" fold="1" page="1" pageScale="1" pageWidth="827" pageHeight="1169" math="0" shadow="0">
      <root>
        <mxCell id="0" />
        <mxCell id="1" parent="0" />
      </root>
    </mxGraphModel>
  </diagram>
</mxfile>
